PathFileType	4	(X/Y/Z)	C:/Users/opensim2020/Desktop/walking_exp_matlab/subject02_walking09_straight_04.trc	
DataRate	CameraRate	NumFrames	NumMarkers	Units	OrigDataRate	OrigDataStartFrame	OrigNumFrames	
100.00	100.00	4	42	mm	100.00	3220	285	
Frame#	Time	LFHD			RFHD			LBHD			RBHD			C7			T10			CLAV			STRN			RBAK			LSHO			LUPA			LELB			LFRM			LWRA			LWRB			LFIN			RSHO			RUPA			RELB			RFRM			RWRA			RWRB			RFIN			LASI			RASI			LPSI			RPSI			LTHI			LKNE			LTIB			LANK			LHEE			LTOE			RTHI			RKNE			RTIB			RANK			RHEE			RTOE			*39			*40			*41			
		X1	Y1	Z1	X2	Y2	Z2	X3	Y3	Z3	X4	Y4	Z4	X5	Y5	Z5	X6	Y6	Z6	X7	Y7	Z7	X8	Y8	Z8	X9	Y9	Z9	X10	Y10	Z10	X11	Y11	Z11	X12	Y12	Z12	X13	Y13	Z13	X14	Y14	Z14	X15	Y15	Z15	X16	Y16	Z16	X17	Y17	Z17	X18	Y18	Z18	X19	Y19	Z19	X20	Y20	Z20	X21	Y21	Z21	X22	Y22	Z22	X23	Y23	Z23	X24	Y24	Z24	X25	Y25	Z25	X26	Y26	Z26	X27	Y27	Z27	X28	Y28	Z28	X29	Y29	Z29	X30	Y30	Z30	X31	Y31	Z31	X32	Y32	Z32	X33	Y33	Z33	X34	Y34	Z34	X35	Y35	Z35	X36	Y36	Z36	X37	Y37	Z37	X38	Y38	Z38	X39	Y39	Z39	X40	Y40	Z40	X41	Y41	Z41	X42	Y42	Z42	

214	2.130	1513.26526	-778.97748	1710.26160	1369.95227	-768.79999	1692.91943	1528.66528	-638.28143	1657.95715	1386.48816	-616.39435	1641.71716	1446.34229	-567.01794	1510.26062	1439.04822	-521.91412	1229.92554	1466.86621	-704.36993	1441.95178	1454.64404	-762.97345	1274.03406	1374.77759	-517.57483	1333.19604	1631.93860	-622.70679	1477.96765	1710.63940	-592.86774	1276.44556	1718.85767	-575.95276	1138.38977	1736.63257	-567.13025	1008.64313	1713.65479	-606.66217	874.09857	1744.57861	-559.89465	885.71692	1748.73486	-566.71832	818.44965	1266.12207	-659.30304	1481.21216	1182.58569	-659.69592	1286.01514	1166.37842	-700.42792	1143.84180	1155.28345	-756.92542	1036.62610	1182.74438	-833.26355	927.62445	1147.15857	-792.01459	911.38458	1148.68567	-845.49359	862.44836	1578.26978	-776.94324	992.48810	1325.48108	-764.06860	956.46765	1506.47937	-559.82935	1016.93378	1390.62109	-551.32458	1010.27173	1638.42883	-771.58966	681.41425	1605.47070	-771.48883	476.70374	1604.66663	-735.81122	283.63425	1567.09070	-762.05640	64.64785	1516.93640	-725.61957	37.49826	1570.22192	-919.67023	29.54187	1248.91895	-631.10742	659.43530	1253.98315	-600.09503	458.38693	1256.92102	-456.72366	337.49130	1294.34766	-330.21732	193.94577	1359.86951	-283.55643	174.18829	1275.97510	-388.80399	40.28561	1428.71191	-684.56207	1792.62109						 
215	2.140	1515.18408	-786.97955	1710.76831	1372.00000	-776.86774	1693.84912	1530.83118	-646.29504	1659.00464	1388.62488	-624.18909	1643.00012	1448.63135	-574.97577	1511.09082	1441.47412	-530.23206	1230.71265	1468.68665	-712.58734	1443.16760	1456.48157	-771.55029	1275.40930	1376.98047	-525.50732	1334.09216	1633.82715	-630.99951	1479.15796	1713.30823	-604.62201	1277.20300	1722.55981	-590.00824	1139.18359	1740.77551	-583.70135	1009.34149	1717.55237	-625.17029	875.42883	1749.36804	-578.73120	886.29126	1753.47742	-586.69257	819.21942	1268.16016	-666.72314	1482.41309	1184.91821	-665.90710	1287.09570	1169.42053	-704.67871	1144.47046	1157.53516	-759.55121	1036.25964	1184.80017	-834.42310	925.98425	1149.23999	-792.81085	910.66766	1150.76245	-845.36981	860.44080	1580.93384	-785.35059	993.62134	1328.78162	-772.34692	957.35571	1509.04419	-568.43011	1017.58374	1393.18066	-559.69196	1011.14294	1640.00537	-777.92957	681.57129	1607.08069	-774.57758	476.73511	1605.90771	-737.28821	284.07385	1567.20679	-762.07373	64.65329	1516.99280	-725.93713	36.89876	1570.19324	-919.74091	29.43938	1250.08716	-644.51080	658.03693	1253.85425	-617.26239	457.35867	1256.13477	-473.26117	339.34140	1294.18030	-343.44589	199.53531	1359.41272	-296.14359	181.83585	1275.49634	-397.04736	44.69225	1431.01794	-692.87000	1793.70068						 
216	2.150	1517.07373	-795.15759	1711.52905	1373.83704	-784.76459	1694.78442	1532.85352	-654.30695	1660.07361	1390.84998	-631.81775	1644.28149	1450.98279	-583.24713	1512.08118	1443.85120	-538.45947	1231.57776	1470.36792	-720.74835	1444.37354	1458.14551	-779.92145	1276.71082	1379.79712	-532.91516	1335.15833	1635.71594	-639.46326	1480.24707	1716.46240	-616.02240	1278.21289	1726.29395	-604.09052	1139.87219	1745.12524	-600.32593	1010.11755	1721.24329	-643.91620	876.74951	1753.79272	-597.88770	887.02863	1758.05383	-607.17340	820.03931	1270.10205	-673.87354	1483.49658	1187.06702	-671.96136	1287.98364	1172.26917	-709.00604	1144.90320	1160.11475	-761.77771	1035.98169	1186.67468	-835.61682	924.37183	1151.16772	-793.50031	909.88373	1152.82129	-844.93732	858.42853	1583.66736	-794.22394	994.47760	1331.82739	-779.04462	957.92108	1511.77881	-576.78583	1018.47766	1395.96448	-567.66150	1012.12415	1641.52246	-783.44708	681.57520	1608.51477	-777.61072	476.85037	1607.13538	-739.60120	284.40118	1567.28259	-762.20953	64.57526	1517.14209	-725.84863	37.08683	1570.18176	-919.76984	29.37261	1251.23523	-657.53571	657.51300	1253.76428	-634.99951	457.07428	1255.72314	-489.93054	341.38239	1294.57764	-357.52127	204.64777	1360.35950	-309.76630	187.96902	1273.33252	-408.05167	49.38162	1433.10352	-701.04370	1794.73523						 
217	2.160	1518.85828	-803.22162	1712.42859	1375.60681	-792.56580	1695.77222	1534.84119	-662.36627	1661.16650	1392.62512	-639.83319	1645.45313	1453.18762	-591.02710	1512.91858	1446.30627	-546.56165	1232.52795	1472.00525	-728.87903	1445.55652	1459.66846	-788.16309	1277.90405	1381.91931	-541.22284	1335.99890	1637.64697	-647.96417	1481.28857	1719.27612	-627.52570	1279.01233	1729.99036	-618.18433	1140.57556	1748.89990	-617.27643	1010.62793	1724.55139	-662.48401	878.09351	1758.00439	-617.19702	887.72754	1762.75525	-628.02789	821.21484	1271.81726	-681.04742	1484.44714	1188.95850	-678.07184	1288.84607	1175.04065	-713.39514	1145.32166	1162.08362	-764.55096	1035.54736	1188.35425	-836.87274	922.82898	1153.02771	-794.18457	909.15222	1154.71777	-844.49524	856.27405	1585.21301	-801.28290	994.05719	1333.78589	-786.69751	958.78497	1514.65491	-584.96814	1019.58887	1398.95874	-575.26849	1013.18597	1642.86267	-788.22668	681.38312	1609.75806	-780.70825	476.83075	1608.41357	-741.86182	284.55188	1567.35767	-762.29425	64.56265	1517.31165	-725.82867	37.10519	1570.15625	-919.84796	29.27132	1252.39990	-670.54688	657.38428	1254.01306	-652.65350	457.22464	1256.08582	-506.60001	343.67899	1295.89124	-371.93030	209.29880	1362.22717	-324.50220	192.13731	1271.35632	-421.32773	54.66282	1435.09326	-709.16675	1795.79749						 
